<svg width="23" height="23" viewBox="0 0 23 23" fill="none" xmlns="http://www.w3.org/2000/svg">
<path d="M3.2 19.4564C2.2 18.4564 1.41667 17.3009 0.85 15.9897C0.283333 14.6786 0 13.3231 0 11.9231C0 10.5231 0.266667 9.13974 0.8 7.77308C1.33333 6.40641 2.2 5.12308 3.4 3.92308C4.17778 3.1453 5.13889 2.47863 6.28333 1.92308C7.42778 1.36752 8.78333 0.928632 10.35 0.60641C11.9167 0.284188 13.7056 0.0897436 15.7167 0.0230769C17.7278 -0.0435897 19.9778 0.034188 22.4667 0.25641C22.6444 2.61197 22.7 4.77863 22.6333 6.75641C22.5667 8.73419 22.3833 10.5175 22.0833 12.1064C21.7833 13.6953 21.3611 15.0842 20.8167 16.2731C20.2722 17.462 19.6 18.4564 18.8 19.2564C17.6222 20.4342 16.3722 21.2953 15.05 21.8397C13.7278 22.3842 12.3778 22.6564 11 22.6564C9.55556 22.6564 8.14444 22.3731 6.76667 21.8064C5.38889 21.2397 4.2 20.4564 3.2 19.4564ZM6.93333 18.9231C7.57778 19.3009 8.23889 19.5731 8.91667 19.7397C9.59444 19.9064 10.2889 19.9897 11 19.9897C12.0222 19.9897 13.0333 19.7842 14.0333 19.3731C15.0333 18.962 15.9889 18.3009 16.9 17.3897C17.3 16.9897 17.7056 16.4286 18.1167 15.7064C18.5278 14.9842 18.8833 14.0397 19.1833 12.8731C19.4833 11.7064 19.7111 10.2953 19.8667 8.63974C20.0222 6.98419 20.0444 5.01197 19.9333 2.72308C18.8444 2.67863 17.6167 2.66197 16.25 2.67308C14.8833 2.68419 13.5222 2.78974 12.1667 2.98974C10.8111 3.18974 9.52222 3.51197 8.3 3.95641C7.07778 4.40085 6.07778 5.01197 5.3 5.78974C4.3 6.78974 3.61111 7.77863 3.23333 8.75641C2.85556 9.73419 2.66667 10.6786 2.66667 11.5897C2.66667 12.9009 2.91667 14.0509 3.41667 15.0397C3.91667 16.0286 4.35556 16.7231 4.73333 17.1231C5.66667 15.3453 6.9 13.6397 8.43333 12.0064C9.96667 10.3731 11.7556 9.03419 13.8 7.98974C12.2 9.38974 10.8056 10.9731 9.61667 12.7397C8.42778 14.5064 7.53333 16.5675 6.93333 18.9231Z" fill="#0891B2"/>
</svg>
