<svg width="22" height="28" viewBox="0 0 22 28" fill="none" xmlns="http://www.w3.org/2000/svg">
<path d="M7.56667 15.6L8.73333 11.8L5.66667 9.33333H9.46667L10.6667 5.6L11.8667 9.33333H15.6667L12.5667 11.8L13.7333 15.6L10.6667 13.2333L7.56667 15.6ZM2.66667 28V17.7C1.82222 16.7667 1.16667 15.7 0.7 14.5C0.233333 13.3 0 12.0222 0 10.6667C0 7.68889 1.03333 5.16667 3.1 3.1C5.16667 1.03333 7.68889 0 10.6667 0C13.6444 0 16.1667 1.03333 18.2333 3.1C20.3 5.16667 21.3333 7.68889 21.3333 10.6667C21.3333 12.0222 21.1 13.3 20.6333 14.5C20.1667 15.7 19.5111 16.7667 18.6667 17.7V28L10.6667 25.3333L2.66667 28ZM10.6667 18.6667C12.8889 18.6667 14.7778 17.8889 16.3333 16.3333C17.8889 14.7778 18.6667 12.8889 18.6667 10.6667C18.6667 8.44444 17.8889 6.55556 16.3333 5C14.7778 3.44444 12.8889 2.66667 10.6667 2.66667C8.44444 2.66667 6.55556 3.44444 5 5C3.44444 6.55556 2.66667 8.44444 2.66667 10.6667C2.66667 12.8889 3.44444 14.7778 5 16.3333C6.55556 17.8889 8.44444 18.6667 10.6667 18.6667ZM5.33333 24.0333L10.6667 22.6667L16 24.0333V19.9C15.2222 20.3444 14.3833 20.6944 13.4833 20.95C12.5833 21.2056 11.6444 21.3333 10.6667 21.3333C9.68889 21.3333 8.75 21.2056 7.85 20.95C6.95 20.6944 6.11111 20.3444 5.33333 19.9V24.0333Z" fill="#0F172A"/>
</svg>
