<svg width="24" height="27" viewBox="0 0 24 27" fill="none" xmlns="http://www.w3.org/2000/svg">
<path d="M17.3333 20C17.8889 20 18.3611 19.8056 18.75 19.4167C19.1389 19.0278 19.3333 18.5556 19.3333 18C19.3333 17.4444 19.1389 16.9722 18.75 16.5833C18.3611 16.1944 17.8889 16 17.3333 16C16.7778 16 16.3056 16.1944 15.9167 16.5833C15.5278 16.9722 15.3333 17.4444 15.3333 18C15.3333 18.5556 15.5278 19.0278 15.9167 19.4167C16.3056 19.8056 16.7778 20 17.3333 20ZM17.3333 24C18.0222 24 18.6556 23.8389 19.2333 23.5167C19.8111 23.1944 20.2778 22.7667 20.6333 22.2333C20.1444 21.9444 19.6222 21.7222 19.0667 21.5667C18.5111 21.4111 17.9333 21.3333 17.3333 21.3333C16.7333 21.3333 16.1556 21.4111 15.6 21.5667C15.0444 21.7222 14.5222 21.9444 14.0333 22.2333C14.3889 22.7667 14.8556 23.1944 15.4333 23.5167C16.0111 23.8389 16.6444 24 17.3333 24ZM10.6667 26.6667C7.57778 25.8889 5.02778 24.1167 3.01667 21.35C1.00556 18.5833 0 15.5111 0 12.1333V4L10.6667 0L21.3333 4V11.5667C20.9111 11.3889 20.4778 11.2278 20.0333 11.0833C19.5889 10.9389 19.1333 10.8333 18.6667 10.7667V5.86667L10.6667 2.86667L2.66667 5.86667V12.1333C2.66667 13.1778 2.80556 14.2222 3.08333 15.2667C3.36111 16.3111 3.75 17.3056 4.25 18.25C4.75 19.1944 5.35556 20.0667 6.06667 20.8667C6.77778 21.6667 7.56667 22.3333 8.43333 22.8667C8.67778 23.5778 9 24.2556 9.4 24.9C9.8 25.5444 10.2556 26.1222 10.7667 26.6333C10.7444 26.6333 10.7278 26.6389 10.7167 26.65C10.7056 26.6611 10.6889 26.6667 10.6667 26.6667ZM17.3333 26.6667C15.4889 26.6667 13.9167 26.0167 12.6167 24.7167C11.3167 23.4167 10.6667 21.8444 10.6667 20C10.6667 18.1556 11.3167 16.5833 12.6167 15.2833C13.9167 13.9833 15.4889 13.3333 17.3333 13.3333C19.1778 13.3333 20.75 13.9833 22.05 15.2833C23.35 16.5833 24 18.1556 24 20C24 21.8444 23.35 23.4167 22.05 24.7167C20.75 26.0167 19.1778 26.6667 17.3333 26.6667Z" fill="#0F172A"/>
</svg>
