<svg width="27" height="30" viewBox="0 0 27 30" fill="none" xmlns="http://www.w3.org/2000/svg">
<path d="M11.8 29.3333C11.1333 29.3333 10.5111 29.1833 9.93333 28.8833C9.35556 28.5833 8.87778 28.1556 8.5 27.6L0 15.1667L0.8 14.4C1.22222 13.9778 1.72222 13.7333 2.3 13.6667C2.87778 13.6 3.4 13.7333 3.86667 14.0667L7.73333 16.7667V4C7.73333 3.62222 7.86111 3.30556 8.11667 3.05C8.37222 2.79444 8.68889 2.66667 9.06667 2.66667C9.44444 2.66667 9.76111 2.79444 10.0167 3.05C10.2722 3.30556 10.4 3.62222 10.4 4V21.9L5.46667 18.4333L10.7 26.0667C10.8111 26.2444 10.9667 26.3889 11.1667 26.5C11.3667 26.6111 11.5778 26.6667 11.8 26.6667H16.4333H21.0667C21.8 26.6667 22.4278 26.4056 22.95 25.8833C23.4722 25.3611 23.7333 24.7333 23.7333 24V5.33333C23.7333 4.95556 23.8611 4.63889 24.1167 4.38333C24.3722 4.12778 24.6889 4 25.0667 4C25.4444 4 25.7611 4.12778 26.0167 4.38333C26.2722 4.63889 26.4 4.95556 26.4 5.33333V24C26.4 25.4667 25.8778 26.7222 24.8333 27.7667C23.7889 28.8111 22.5333 29.3333 21.0667 29.3333H11.8ZM13.0667 14.6667V1.33333C13.0667 0.955556 13.1944 0.638889 13.45 0.383333C13.7056 0.127778 14.0222 0 14.4 0C14.7778 0 15.0944 0.127778 15.35 0.383333C15.6056 0.638889 15.7333 0.955556 15.7333 1.33333V14.6667H13.0667ZM18.4 14.6667V2.66667C18.4 2.28889 18.5278 1.97222 18.7833 1.71667C19.0389 1.46111 19.3556 1.33333 19.7333 1.33333C20.1111 1.33333 20.4278 1.46111 20.6833 1.71667C20.9389 1.97222 21.0667 2.28889 21.0667 2.66667V14.6667H18.4Z" fill="#DC2626"/>
</svg>
