<svg xmlns="http://www.w3.org/2000/svg" xmlns:xlink="http://www.w3.org/1999/xlink" width="1080" zoomAndPan="magnify" viewBox="0 0 810 809.999993" height="1080" preserveAspectRatio="xMidYMid meet" version="1.0"><defs><clipPath id="9c5a51dd25"><path d="M 4.441406 112.59375 L 805.441406 112.59375 L 805.441406 697.59375 L 4.441406 697.59375 Z M 4.441406 112.59375 " clip-rule="nonzero"/></clipPath><clipPath id="5f4d461129"><path d="M 0.441406 0.59375 L 801.441406 0.59375 L 801.441406 585.40625 L 0.441406 585.40625 Z M 0.441406 0.59375 " clip-rule="nonzero"/></clipPath><clipPath id="0d7c7d27a0"><rect x="0" width="802" y="0" height="586"/></clipPath></defs><g clip-path="url(#9c5a51dd25)"><g transform="matrix(1, 0, 0, 1, 4, 112)"><g clip-path="url(#0d7c7d27a0)"><g clip-path="url(#5f4d461129)"><path fill="#ffffff" d="M 710.9375 571.308594 C 716.382812 571.308594 720.726562 570.585938 715.742188 566.789062 C 668.285156 528.527344 619.175781 455.226562 622.125 392.097656 C 622.652344 385.351562 623.246094 377.226562 629.238281 372.964844 C 634.460938 369.183594 642.953125 368.914062 649.796875 367.003906 C 720.261719 350.453125 776.179688 290.324219 785.9375 218.175781 C 802.535156 106.195312 708.371094 14.722656 606.054688 14.722656 C 579.167969 14.722656 551.722656 21.035156 525.558594 34.957031 C 467.605469 64.839844 428.816406 126.800781 428.976562 192.507812 L 428.976562 192.84375 C 430.527344 344.671875 559.941406 520.707031 702.683594 571.066406 C 704.945312 571.128906 708.085938 571.324219 710.921875 571.324219 M 296.085938 571.308594 C 301.535156 571.308594 305.875 570.585938 300.890625 566.789062 C 253.433594 528.527344 204.324219 455.226562 207.273438 392.097656 C 207.800781 385.351562 208.394531 377.226562 214.386719 372.964844 C 219.609375 369.183594 228.101562 368.914062 234.945312 367.003906 C 305.410156 350.453125 361.328125 290.324219 371.085938 218.175781 C 387.683594 106.195312 293.523438 14.722656 191.21875 14.722656 C 164.332031 14.722656 136.886719 21.035156 110.722656 34.957031 C 52.769531 64.839844 13.980469 126.800781 14.140625 192.507812 L 14.140625 192.84375 C 15.710938 344.65625 145.125 520.691406 287.867188 571.035156 C 290.125 571.097656 293.265625 571.289062 296.101562 571.289062 M 710.9375 585.003906 C 708.773438 585.003906 706.59375 584.910156 704.6875 584.828125 C 703.839844 584.796875 703.039062 584.765625 702.316406 584.734375 C 700.890625 584.683594 699.496094 584.429688 698.148438 583.964844 C 661.828125 571.144531 625.890625 550.542969 591.34375 522.726562 C 558.257812 496.082031 528.136719 464.230469 501.828125 428.050781 C 475.40625 391.726562 454.449219 353.257812 439.535156 313.730469 C 423.847656 272.167969 415.691406 231.535156 415.292969 192.972656 C 415.292969 192.890625 415.292969 192.8125 415.292969 192.714844 L 415.292969 192.457031 C 415.226562 157.835938 425.082031 123.480469 443.828125 93.085938 C 462.398438 62.980469 488.464844 38.675781 519.230469 22.796875 C 546.433594 8.328125 575.660156 0.992188 606.070312 0.992188 C 634.046875 0.992188 662.582031 7.480469 688.632812 19.769531 C 714.109375 31.785156 737.246094 49.363281 755.542969 70.578125 C 791.914062 112.746094 807.535156 165.828125 799.507812 220.082031 C 794.347656 258.101562 777.476562 293.574219 750.71875 322.6875 C 724.203125 351.542969 690.476562 371.445312 653.191406 380.257812 C 650.515625 380.992188 647.90625 381.472656 645.371094 381.953125 C 642.792969 382.433594 638.484375 383.253906 637.28125 384.039062 C 636.382812 385.414062 636 390.285156 635.792969 392.929688 C 633.242188 450.433594 679.386719 519.8125 724.21875 556.003906 C 733.351562 563.085938 731.910156 571.050781 730.867188 574.160156 C 727.214844 585.003906 714.957031 585.003906 710.9375 585.003906 Z M 296.085938 585.003906 C 293.921875 585.003906 291.742188 584.910156 289.835938 584.828125 C 288.988281 584.796875 288.1875 584.765625 287.464844 584.734375 C 286.039062 584.683594 284.644531 584.429688 283.300781 583.964844 C 246.976562 571.144531 211.039062 550.542969 176.496094 522.726562 C 143.410156 496.082031 113.285156 464.230469 86.976562 428.050781 C 60.558594 391.726562 39.601562 353.257812 24.683594 313.730469 C 8.996094 272.167969 0.84375 231.535156 0.441406 192.953125 C 0.441406 192.875 0.441406 192.792969 0.441406 192.699219 L 0.441406 192.441406 C 0.378906 157.816406 10.230469 123.464844 28.976562 93.070312 C 47.546875 62.964844 73.617188 38.660156 104.378906 22.78125 C 131.585938 8.3125 160.808594 0.976562 191.21875 0.976562 C 219.195312 0.976562 247.730469 7.464844 273.78125 19.753906 C 299.257812 31.769531 322.394531 49.347656 340.691406 70.558594 C 377.0625 112.730469 392.683594 165.8125 384.65625 220.066406 C 379.496094 258.085938 362.625 293.558594 335.886719 322.671875 C 309.367188 351.527344 275.640625 371.429688 238.355469 380.257812 C 235.679688 380.992188 233.070312 381.472656 230.539062 381.953125 C 227.957031 382.433594 223.648438 383.253906 222.445312 384.039062 C 221.550781 385.414062 221.164062 390.285156 220.957031 392.929688 C 218.410156 450.433594 264.554688 519.8125 309.382812 556.003906 C 318.515625 563.085938 317.074219 571.050781 316.035156 574.160156 C 312.378906 585.003906 300.125 585.003906 296.101562 585.003906 Z M 296.085938 585.003906 " fill-opacity="1" fill-rule="nonzero"/></g></g></g></g></svg>