<svg width="24" height="39" viewBox="0 0 24 39" fill="none" xmlns="http://www.w3.org/2000/svg">
<path d="M0.545455 39L0 34.2333L6.21818 17.225C6.76364 17.7306 7.35455 18.1549 7.99091 18.4979C8.62727 18.841 9.30909 19.1028 10.0364 19.2833L4.03636 35.6417L0.545455 39ZM23.4545 39L19.9636 35.6417L13.9636 19.2833C14.6909 19.1028 15.3727 18.841 16.0091 18.4979C16.6455 18.1549 17.2364 17.7306 17.7818 17.225L24 34.2333L23.4545 39ZM12 17.3333C10.1818 17.3333 8.63636 16.7014 7.36364 15.4375C6.09091 14.1736 5.45455 12.6389 5.45455 10.8333C5.45455 9.425 5.86364 8.17014 6.68182 7.06875C7.5 5.96736 8.54545 5.2 9.81818 4.76667V0H14.1818V4.76667C15.4545 5.2 16.5 5.96736 17.3182 7.06875C18.1364 8.17014 18.5455 9.425 18.5455 10.8333C18.5455 12.6389 17.9091 14.1736 16.6364 15.4375C15.3636 16.7014 13.8182 17.3333 12 17.3333ZM12 13C12.6182 13 13.1364 12.7924 13.5545 12.3771C13.9727 11.9618 14.1818 11.4472 14.1818 10.8333C14.1818 10.2194 13.9727 9.70486 13.5545 9.28958C13.1364 8.87431 12.6182 8.66667 12 8.66667C11.3818 8.66667 10.8636 8.87431 10.4455 9.28958C10.0273 9.70486 9.81818 10.2194 9.81818 10.8333C9.81818 11.4472 10.0273 11.9618 10.4455 12.3771C10.8636 12.7924 11.3818 13 12 13Z" fill="white"/>
</svg>
