<svg width="38" height="35" viewBox="0 0 38 35" fill="none" xmlns="http://www.w3.org/2000/svg">
<path d="M18.7928 31.5C18.9079 31.5 19.023 31.4708 19.1381 31.4125C19.2532 31.3542 19.3395 31.2958 19.3971 31.2375L33.5543 16.8875C33.8996 16.5375 34.1514 16.1437 34.3096 15.7063C34.4679 15.2688 34.547 14.8313 34.547 14.3938C34.547 13.9271 34.4679 13.4823 34.3096 13.0594C34.1514 12.6365 33.8996 12.2646 33.5543 11.9437L26.2167 4.50625C25.9002 4.15625 25.5333 3.90104 25.1161 3.74062C24.6988 3.58021 24.26 3.5 23.7996 3.5C23.368 3.5 22.9364 3.58021 22.5048 3.74062C22.0731 3.90104 21.6847 4.15625 21.3394 4.50625L20.8646 4.9875L24.0586 8.26875C24.4902 8.67708 24.8068 9.14375 25.0082 9.66875C25.2096 10.1937 25.3103 10.7479 25.3103 11.3313C25.3103 12.5562 24.9003 13.5844 24.0802 14.4156C23.2601 15.2469 22.2458 15.6625 21.0373 15.6625C20.4618 15.6625 19.9078 15.5604 19.3755 15.3562C18.8432 15.1521 18.3756 14.8458 17.9727 14.4375L14.7356 11.2L7.18219 18.8562C7.09586 18.9438 7.03112 19.0385 6.98796 19.1406C6.9448 19.2427 6.92322 19.3521 6.92322 19.4688C6.92322 19.7021 7.00954 19.9135 7.18219 20.1031C7.35484 20.2927 7.55626 20.3875 7.78646 20.3875C7.90156 20.3875 8.01666 20.3583 8.13176 20.3C8.24686 20.2417 8.33318 20.1833 8.39073 20.125L14.2608 14.175L16.6779 16.625L10.851 22.575C10.7647 22.6625 10.6999 22.7573 10.6567 22.8594C10.6136 22.9615 10.592 23.0708 10.592 23.1875C10.592 23.4208 10.6783 23.625 10.851 23.8C11.0236 23.975 11.225 24.0625 11.4552 24.0625C11.5703 24.0625 11.6854 24.0333 11.8005 23.975C11.9156 23.9167 12.002 23.8583 12.0595 23.8L17.9296 17.8937L20.3467 20.3438L14.5198 26.2937C14.4334 26.3521 14.3687 26.4396 14.3255 26.5562C14.2824 26.6729 14.2608 26.7896 14.2608 26.9062C14.2608 27.1396 14.3471 27.3438 14.5198 27.5187C14.6924 27.6938 14.8938 27.7812 15.124 27.7812C15.2391 27.7812 15.347 27.7594 15.4478 27.7156C15.5485 27.6719 15.642 27.6062 15.7283 27.5187L21.5984 21.6125L24.0154 24.0625L18.1454 30.0125C18.0591 30.1 17.9943 30.1948 17.9512 30.2969C17.908 30.399 17.8864 30.5083 17.8864 30.625C17.8864 30.8583 17.9799 31.0625 18.167 31.2375C18.354 31.4125 18.5626 31.5 18.7928 31.5ZM18.7497 35C17.685 35 16.7426 34.6427 15.9225 33.9281C15.1025 33.2135 14.6205 32.3167 14.4766 31.2375C13.4983 31.0917 12.6782 30.6833 12.0164 30.0125C11.3545 29.3417 10.9517 28.5104 10.8078 27.5187C9.82947 27.3729 9.01658 26.9573 8.36915 26.2719C7.72172 25.5865 7.32606 24.7625 7.18219 23.8C6.08875 23.6542 5.19673 23.1729 4.50613 22.3562C3.81554 21.5396 3.47024 20.5771 3.47024 19.4688C3.47024 18.8854 3.57815 18.324 3.79396 17.7844C4.00977 17.2448 4.3191 16.7708 4.72194 16.3625L14.7356 6.25625L20.3898 11.9875C20.4474 12.075 20.5337 12.1406 20.6488 12.1844C20.7639 12.2281 20.879 12.25 20.9941 12.25C21.2531 12.25 21.4689 12.1698 21.6415 12.0094C21.8142 11.849 21.9005 11.6375 21.9005 11.375C21.9005 11.2583 21.8789 11.1417 21.8358 11.025C21.7926 10.9083 21.7278 10.8208 21.6415 10.7625L15.4693 4.50625C15.1528 4.15625 14.7859 3.90104 14.3687 3.74062C13.9515 3.58021 13.5126 3.5 13.0522 3.5C12.6206 3.5 12.189 3.58021 11.7574 3.74062C11.3258 3.90104 10.9373 4.15625 10.592 4.50625L4.50613 10.7188C4.24716 10.9812 4.03135 11.2875 3.8587 11.6375C3.68605 11.9875 3.57095 12.3375 3.5134 12.6875C3.45585 13.0375 3.45585 13.3948 3.5134 13.7594C3.57095 14.124 3.68605 14.4667 3.8587 14.7875L1.35529 17.325C0.866121 16.6542 0.506436 15.9177 0.276238 15.1156C0.0460397 14.3135 -0.0402847 13.5042 0.0172649 12.6875C0.0748145 11.8708 0.276238 11.076 0.621536 10.3031C0.966833 9.53021 1.44162 8.8375 2.04589 8.225L8.13176 2.05625C8.82235 1.38542 9.59208 0.875 10.4409 0.525C11.2898 0.175 12.1602 0 13.0522 0C13.9443 0 14.8147 0.175 15.6636 0.525C16.5124 0.875 17.2678 1.38542 17.9296 2.05625L18.4044 2.5375L18.8791 2.05625C19.5697 1.38542 20.3395 0.875 21.1883 0.525C22.0372 0.175 22.9076 0 23.7996 0C24.6917 0 25.5621 0.175 26.4109 0.525C27.2598 0.875 28.0151 1.38542 28.677 2.05625L35.9714 9.45C36.6332 10.1208 37.1368 10.8938 37.4821 11.7688C37.8274 12.6438 38 13.5333 38 14.4375C38 15.3417 37.8274 16.224 37.4821 17.0844C37.1368 17.9448 36.6332 18.7104 35.9714 19.3813L21.8142 33.6875C21.4113 34.0958 20.9437 34.4167 20.4114 34.65C19.8791 34.8833 19.3252 35 18.7497 35Z" fill="#E1E3E4"/>
</svg>
