<svg width="48" height="24" viewBox="0 0 48 24" fill="none" xmlns="http://www.w3.org/2000/svg">
<path d="M0 24V20.85C0 19.4167 0.733333 18.25 2.2 17.35C3.66667 16.45 5.6 16 8 16C8.43333 16 8.85 16.0083 9.25 16.025C9.65 16.0417 10.0333 16.0833 10.4 16.15C9.93333 16.85 9.58333 17.5833 9.35 18.35C9.11667 19.1167 9 19.9167 9 20.75V24H0ZM12 24V20.75C12 19.6833 12.2917 18.7083 12.875 17.825C13.4583 16.9417 14.2833 16.1667 15.35 15.5C16.4167 14.8333 17.6917 14.3333 19.175 14C20.6583 13.6667 22.2667 13.5 24 13.5C25.7667 13.5 27.3917 13.6667 28.875 14C30.3583 14.3333 31.6333 14.8333 32.7 15.5C33.7667 16.1667 34.5833 16.9417 35.15 17.825C35.7167 18.7083 36 19.6833 36 20.75V24H12ZM39 24V20.75C39 19.8833 38.8917 19.0667 38.675 18.3C38.4583 17.5333 38.1333 16.8167 37.7 16.15C38.0667 16.0833 38.4417 16.0417 38.825 16.025C39.2083 16.0083 39.6 16 40 16C42.4 16 44.3333 16.4417 45.8 17.325C47.2667 18.2083 48 19.3833 48 20.85V24H39ZM16.25 20H31.8C31.4667 19.3333 30.5417 18.75 29.025 18.25C27.5083 17.75 25.8333 17.5 24 17.5C22.1667 17.5 20.4917 17.75 18.975 18.25C17.4583 18.75 16.55 19.3333 16.25 20ZM8 14C6.9 14 5.95833 13.6083 5.175 12.825C4.39167 12.0417 4 11.1 4 10C4 8.86667 4.39167 7.91667 5.175 7.15C5.95833 6.38333 6.9 6 8 6C9.13333 6 10.0833 6.38333 10.85 7.15C11.6167 7.91667 12 8.86667 12 10C12 11.1 11.6167 12.0417 10.85 12.825C10.0833 13.6083 9.13333 14 8 14ZM40 14C38.9 14 37.9583 13.6083 37.175 12.825C36.3917 12.0417 36 11.1 36 10C36 8.86667 36.3917 7.91667 37.175 7.15C37.9583 6.38333 38.9 6 40 6C41.1333 6 42.0833 6.38333 42.85 7.15C43.6167 7.91667 44 8.86667 44 10C44 11.1 43.6167 12.0417 42.85 12.825C42.0833 13.6083 41.1333 14 40 14ZM24 12C22.3333 12 20.9167 11.4167 19.75 10.25C18.5833 9.08333 18 7.66667 18 6C18 4.3 18.5833 2.875 19.75 1.725C20.9167 0.575 22.3333 0 24 0C25.7 0 27.125 0.575 28.275 1.725C29.425 2.875 30 4.3 30 6C30 7.66667 29.425 9.08333 28.275 10.25C27.125 11.4167 25.7 12 24 12ZM24 8C24.5667 8 25.0417 7.80833 25.425 7.425C25.8083 7.04167 26 6.56667 26 6C26 5.43333 25.8083 4.95833 25.425 4.575C25.0417 4.19167 24.5667 4 24 4C23.4333 4 22.9583 4.19167 22.575 4.575C22.1917 4.95833 22 5.43333 22 6C22 6.56667 22.1917 7.04167 22.575 7.425C22.9583 7.80833 23.4333 8 24 8Z" fill="#31A7BA"/>
</svg>
