<svg width="37" height="37" viewBox="0 0 37 37" fill="none" xmlns="http://www.w3.org/2000/svg">
<path d="M2.05193 37V31.0019H8.41291L3.18049 14.3072C2.25712 13.8074 1.4962 13.0743 0.897719 12.1079C0.29924 11.1416 0 10.1086 0 9.0089C0 7.34276 0.598479 5.92655 1.79544 4.76025C2.9924 3.59396 4.44585 3.01081 6.15579 3.01081C7.48954 3.01081 8.67795 3.38569 9.72101 4.13545C10.7641 4.88521 11.4908 5.84324 11.9012 7.00954H18.4674V5.01017C18.4674 4.44369 18.664 3.96884 19.0573 3.58562C19.4506 3.20241 19.9379 3.01081 20.5193 3.01081C20.8271 3.01081 21.1263 3.07745 21.417 3.21074C21.7077 3.34403 21.9556 3.54397 22.1608 3.81055L25.6491 0.61157C25.9569 0.311666 26.3245 0.12006 26.752 0.036753C27.1795 -0.0465538 27.5984 0.011761 28.0088 0.211697L36.0113 3.81055C36.4217 4.01049 36.7039 4.30206 36.8578 4.68528C37.0117 5.06849 37.0031 5.44337 36.8321 5.80992C36.6269 6.20979 36.3277 6.46804 35.9344 6.58467C35.5411 6.7013 35.1564 6.67631 34.7802 6.5097L27.3932 3.21074L22.5712 7.60935V10.4085L27.3932 14.7071L34.7802 11.4081C35.1564 11.2415 35.5497 11.2249 35.96 11.3582C36.3704 11.4914 36.6611 11.7414 36.8321 12.1079C37.0373 12.5078 37.0544 12.891 36.8834 13.2575C36.7124 13.6241 36.4217 13.9073 36.0113 14.1073L28.0088 17.8061C27.5984 18.006 27.1795 18.0644 26.752 17.981C26.3245 17.8977 25.9569 17.7061 25.6491 17.4062L22.1608 14.2072C21.9556 14.4072 21.7077 14.5905 21.417 14.7571C21.1263 14.9237 20.8271 15.007 20.5193 15.007C19.9379 15.007 19.4506 14.8154 19.0573 14.4322C18.664 14.049 18.4674 13.5741 18.4674 13.0076V11.0083H11.9012C11.7986 11.2748 11.6874 11.5248 11.5677 11.758C11.4481 11.9913 11.2856 12.2412 11.0804 12.5078L21.3401 31.0019H28.727V37H2.05193ZM6.15579 11.0083C6.73716 11.0083 7.2245 10.8167 7.61778 10.4334C8.01107 10.0502 8.20771 9.57539 8.20771 9.0089C8.20771 8.44241 8.01107 7.96756 7.61778 7.58435C7.2245 7.20114 6.73716 7.00954 6.15579 7.00954C5.57441 7.00954 5.08707 7.20114 4.69379 7.58435C4.3005 7.96756 4.10386 8.44241 4.10386 9.0089C4.10386 9.57539 4.3005 10.0502 4.69379 10.4334C5.08707 10.8167 5.57441 11.0083 6.15579 11.0083ZM12.6194 31.0019H16.6206L7.79733 15.007C7.79733 15.007 7.76313 15.007 7.69473 15.007C7.62633 15.007 7.59214 15.007 7.59214 15.007L12.6194 31.0019Z" fill="#E1E3E4"/>
</svg>
