<svg width="28" height="35" viewBox="0 0 28 35" fill="none" xmlns="http://www.w3.org/2000/svg">
<path d="M11.375 23.625H16.625V19.25H21V14H16.625V9.625H11.375V14H7V19.25H11.375V23.625ZM14 35C9.94583 33.9792 6.59896 31.6531 3.95937 28.0219C1.31979 24.3906 0 20.3583 0 15.925V5.25L14 0L28 5.25V15.925C28 20.3583 26.6802 24.3906 24.0406 28.0219C21.401 31.6531 18.0542 33.9792 14 35ZM14 31.325C17.0333 30.3625 19.5417 28.4375 21.525 25.55C23.5083 22.6625 24.5 19.4542 24.5 15.925V7.65625L14 3.71875L3.5 7.65625V15.925C3.5 19.4542 4.49167 22.6625 6.475 25.55C8.45833 28.4375 10.9667 30.3625 14 31.325Z" fill="#31A7BA"/>
</svg>
