<svg width="19" height="20" viewBox="0 0 19 20" fill="none" xmlns="http://www.w3.org/2000/svg">
<path d="M8.995 2.45C10.7617 2.45 12.4283 2.82917 13.995 3.5875C15.5617 4.34583 16.87 5.44167 17.92 6.875C18.0367 7.025 18.0742 7.15833 18.0325 7.275C17.9908 7.39167 17.92 7.49167 17.82 7.575C17.72 7.65833 17.6033 7.69583 17.47 7.6875C17.3367 7.67917 17.22 7.60833 17.12 7.475C16.2033 6.175 15.0242 5.17917 13.5825 4.4875C12.1408 3.79583 10.6117 3.45 8.995 3.45C7.37833 3.45 5.86167 3.79583 4.445 4.4875C3.02833 5.17917 1.85333 6.175 0.92 7.475C0.82 7.625 0.703333 7.70833 0.57 7.725C0.436667 7.74167 0.32 7.70833 0.22 7.625C0.103333 7.54167 0.0325 7.4375 0.0075 7.3125C-0.0175 7.1875 0.02 7.05833 0.12 6.925C1.15333 5.50833 2.44917 4.40833 4.0075 3.625C5.56583 2.84167 7.22833 2.45 8.995 2.45ZM8.995 4.8C11.245 4.8 13.1783 5.55 14.795 7.05C16.4117 8.55 17.22 10.4083 17.22 12.625C17.22 13.4583 16.9242 14.1542 16.3325 14.7125C15.7408 15.2708 15.02 15.55 14.17 15.55C13.32 15.55 12.5908 15.2708 11.9825 14.7125C11.3742 14.1542 11.07 13.4583 11.07 12.625C11.07 12.075 10.8658 11.6125 10.4575 11.2375C10.0492 10.8625 9.56167 10.675 8.995 10.675C8.42833 10.675 7.94083 10.8625 7.5325 11.2375C7.12417 11.6125 6.92 12.075 6.92 12.625C6.92 14.2417 7.39917 15.5917 8.3575 16.675C9.31583 17.7583 10.5533 18.5167 12.07 18.95C12.22 19 12.32 19.0833 12.37 19.2C12.42 19.3167 12.4283 19.4417 12.395 19.575C12.3617 19.6917 12.295 19.7917 12.195 19.875C12.095 19.9583 11.97 19.9833 11.82 19.95C10.0867 19.5167 8.67 18.6542 7.57 17.3625C6.47 16.0708 5.92 14.4917 5.92 12.625C5.92 11.7917 6.22 11.0917 6.82 10.525C7.42 9.95833 8.145 9.675 8.995 9.675C9.845 9.675 10.57 9.95833 11.17 10.525C11.77 11.0917 12.07 11.7917 12.07 12.625C12.07 13.175 12.2783 13.6375 12.695 14.0125C13.1117 14.3875 13.6033 14.575 14.17 14.575C14.7367 14.575 15.22 14.3875 15.62 14.0125C16.02 13.6375 16.22 13.175 16.22 12.625C16.22 10.6917 15.5117 9.06667 14.095 7.75C12.6783 6.43333 10.9867 5.775 9.02 5.775C7.05333 5.775 5.36167 6.43333 3.945 7.75C2.52833 9.06667 1.82 10.6833 1.82 12.6C1.82 13 1.8575 13.5 1.9325 14.1C2.0075 14.7 2.18667 15.4 2.47 16.2C2.52 16.35 2.51583 16.4833 2.4575 16.6C2.39917 16.7167 2.30333 16.8 2.17 16.85C2.03667 16.9 1.9075 16.8958 1.7825 16.8375C1.6575 16.7792 1.57 16.6833 1.52 16.55C1.27 15.9 1.09083 15.2542 0.9825 14.6125C0.874167 13.9708 0.82 13.3083 0.82 12.625C0.82 10.4083 1.62417 8.55 3.2325 7.05C4.84083 5.55 6.76167 4.8 8.995 4.8ZM8.995 0C10.0617 0 11.1033 0.129167 12.12 0.3875C13.1367 0.645833 14.12 1.01667 15.07 1.5C15.22 1.58333 15.3075 1.68333 15.3325 1.8C15.3575 1.91667 15.345 2.03333 15.295 2.15C15.245 2.26667 15.1617 2.35833 15.045 2.425C14.9283 2.49167 14.7867 2.48333 14.62 2.4C13.7367 1.95 12.8242 1.60417 11.8825 1.3625C10.9408 1.12083 9.97833 1 8.995 1C8.02833 1 7.07833 1.1125 6.145 1.3375C5.21167 1.5625 4.32 1.91667 3.47 2.4C3.33667 2.48333 3.20333 2.50417 3.07 2.4625C2.93667 2.42083 2.83667 2.33333 2.77 2.2C2.70333 2.06667 2.68667 1.94583 2.72 1.8375C2.75333 1.72917 2.83667 1.63333 2.97 1.55C3.90333 1.05 4.87833 0.666667 5.895 0.4C6.91167 0.133333 7.945 0 8.995 0ZM8.995 7.225C10.545 7.225 11.8783 7.74583 12.995 8.7875C14.1117 9.82917 14.67 11.1083 14.67 12.625C14.67 12.775 14.6242 12.8958 14.5325 12.9875C14.4408 13.0792 14.32 13.125 14.17 13.125C14.0367 13.125 13.92 13.0792 13.82 12.9875C13.72 12.8958 13.67 12.775 13.67 12.625C13.67 11.375 13.2075 10.3292 12.2825 9.4875C11.3575 8.64583 10.2617 8.225 8.995 8.225C7.72833 8.225 6.64083 8.64583 5.7325 9.4875C4.82417 10.3292 4.37 11.375 4.37 12.625C4.37 13.975 4.60333 15.1208 5.07 16.0625C5.53667 17.0042 6.22 17.95 7.12 18.9C7.22 19 7.27 19.1167 7.27 19.25C7.27 19.3833 7.22 19.5 7.12 19.6C7.02 19.7 6.90333 19.75 6.77 19.75C6.63667 19.75 6.52 19.7 6.42 19.6C5.43667 18.5667 4.6825 17.5125 4.1575 16.4375C3.6325 15.3625 3.37 14.0917 3.37 12.625C3.37 11.1083 3.92 9.82917 5.02 8.7875C6.12 7.74583 7.445 7.225 8.995 7.225ZM8.97 12.125C9.12 12.125 9.24083 12.175 9.3325 12.275C9.42417 12.375 9.47 12.4917 9.47 12.625C9.47 13.875 9.92 14.9 10.82 15.7C11.72 16.5 12.77 16.9 13.97 16.9C14.07 16.9 14.2117 16.8917 14.395 16.875C14.5783 16.8583 14.77 16.8333 14.97 16.8C15.12 16.7667 15.2492 16.7875 15.3575 16.8625C15.4658 16.9375 15.5367 17.05 15.57 17.2C15.6033 17.3333 15.5783 17.45 15.495 17.55C15.4117 17.65 15.3033 17.7167 15.17 17.75C14.87 17.8333 14.6075 17.8792 14.3825 17.8875C14.1575 17.8958 14.02 17.9 13.97 17.9C12.4867 17.9 11.1992 17.4 10.1075 16.4C9.01583 15.4 8.47 14.1417 8.47 12.625C8.47 12.4917 8.51583 12.375 8.6075 12.275C8.69917 12.175 8.82 12.125 8.97 12.125Z" fill="#31A7BA"/>
</svg>
